<svg width="67" height="67" viewBox="0 0 67 67" fill="none" xmlns="http://www.w3.org/2000/svg">
<rect width="66.2588" height="66.2588" fill="black"/>
<path d="M18.4534 24.819V22.8023H25.4793V24.819H18.4534ZM28.5283 30.1318V14.7356H32.2798C33.6387 14.7356 34.8169 15.0392 35.8144 15.6464C36.8263 16.2391 37.5998 17.1137 38.1347 18.2702C38.684 19.4123 38.9587 20.8074 38.9587 22.4554C38.9587 24.1034 38.684 25.4985 38.1347 26.6405C37.5998 27.7826 36.8263 28.65 35.8144 29.2427C34.8169 29.8354 33.6387 30.1318 32.2798 30.1318H28.5283ZM30.8052 27.985H32.2147C33.617 27.985 34.694 27.5296 35.4458 26.6189C36.2119 25.6936 36.595 24.3058 36.595 22.4554C36.595 20.605 36.2119 19.2171 35.4458 18.2919C34.694 17.3523 33.617 16.8824 32.2147 16.8824H30.8052V27.985ZM39.9043 30.1318V14.7356H49.3589V16.8824H42.1812V21.3712H49.0986V23.4529H42.1812V27.985H49.5323V30.1318H39.9043Z" fill="white"/>
<path d="M21.9594 52.1634C20.8462 52.1634 19.8704 51.9393 19.0319 51.4912C18.2079 51.043 17.5501 50.4214 17.0586 49.6263C16.5671 48.8168 16.278 47.8771 16.1912 46.8073L18.5332 46.6555C18.6344 47.3928 18.8368 48.0144 19.1403 48.5204C19.4439 49.0264 19.8415 49.4095 20.333 49.6697C20.8245 49.9154 21.3956 50.0383 22.0461 50.0383C22.6822 50.0383 23.2171 49.9588 23.6508 49.7998C24.0845 49.6263 24.417 49.3806 24.6483 49.0625C24.8796 48.7445 24.9952 48.3614 24.9952 47.9132C24.9952 47.4506 24.8868 47.0458 24.6699 46.6989C24.4531 46.3519 24.0628 46.0339 23.499 45.7448C22.9352 45.4556 22.1112 45.1593 21.0269 44.8557C19.9716 44.5666 19.1114 44.2413 18.4464 43.8799C17.7814 43.5185 17.2972 43.0703 16.9936 42.5354C16.69 42.0005 16.5382 41.3355 16.5382 40.5404C16.5382 39.6586 16.7406 38.8852 17.1454 38.2202C17.5646 37.5407 18.1573 37.013 18.9235 36.6372C19.7042 36.2613 20.6366 36.0734 21.7208 36.0734C22.7906 36.0734 23.7014 36.283 24.4531 36.7022C25.2193 37.1215 25.8192 37.707 26.2529 38.4587C26.7011 39.196 26.9758 40.0634 27.0769 41.0609L24.735 41.191C24.6627 40.5983 24.4965 40.0778 24.2363 39.6297C23.9905 39.1815 23.6508 38.8346 23.2171 38.5888C22.7834 38.3286 22.2629 38.1985 21.6558 38.1985C20.8028 38.1985 20.1234 38.4081 19.6174 38.8273C19.1259 39.2321 18.8801 39.767 18.8801 40.432C18.8801 40.8802 18.9813 41.2488 19.1837 41.5379C19.3861 41.8271 19.7403 42.0873 20.2463 42.3186C20.7522 42.5499 21.4606 42.7884 22.3714 43.0342C23.6002 43.3667 24.576 43.7498 25.2988 44.1835C26.0216 44.6171 26.5421 45.1376 26.8601 45.7448C27.1781 46.3519 27.3372 47.0747 27.3372 47.9132C27.3372 48.7517 27.1131 49.4962 26.6649 50.1467C26.2168 50.7828 25.5879 51.2816 24.7784 51.643C23.9833 51.9899 23.0436 52.1634 21.9594 52.1634ZM31.9042 51.8165V45.4845L27.3287 36.4203H29.8441L33.0318 43.1426L36.2194 36.4203H38.7348L34.1811 45.4845V51.8165H31.9042ZM39.2685 51.8165V36.4203H42.0441L47.0967 48.5854V36.4203H49.3302V51.8165H46.5545L41.502 39.6514V51.8165H39.2685Z" fill="white"/>
</svg>
